STARTFONT 2.1
FONT -DEC-Present Bullets-Medium-R-Normal--72-720-75-75-P-686-DEC-FontSpecific
SIZE 72 75 75
FONTBOUNDINGBOX 94 64 -1 -6

STARTPROPERTIES 22
CHARSET_REGISTRY "DEC"
CHARSET_ENCODING "FontSpecific"
AVERAGE_WIDTH 686
FAMILY_NAME "Present Bullets"
FOUNDRY "DEC"
WEIGHT_NAME "Medium"
SLANT "R"
SETWIDTH_NAME "Normal"
ADD_STYLE_NAME ""
PIXEL_SIZE 72
POINT_SIZE 720
RESOLUTION_X 75
RESOLUTION_Y 75
SPACING "P"
FULL_NAME "Present Bullets"
COPYRIGHT "Copyright 1990, 1991, Digital Equipment Corporation  Created by Loree Nelson, The Artis Consultancy"
WEIGHT 10
X_HEIGHT 51
QUAD_WIDTH 62
DEFAULT_CHAR 32
FONT_DESCENT 7
FONT_ASCENT 63
ENDPROPERTIES

CHARS 59

STARTCHAR space
ENCODING 32
SWIDTH 250 0
DWIDTH 18 0
BBX 0 0 0 0
BITMAP
ENDCHAR

STARTCHAR A
ENCODING 65
SWIDTH 704 0
DWIDTH 51 0
BBX 36 49 0 7
BITMAP
0000000180
0000000380
0000000780
0000000780
0000000F80
0000001F80
0000001F80
0000003FC0
0000003FC0
0000007FC0
0000007FC0
000000FF80
000000FF00
000000FE00
000001FC00
FFFFFE07F0
800001F830
800003F030
800003F030
800007E030
800007C030
800007C030
80000F8030
80400F8030
80C00F0030
80601F0030
80601E0030
80703E0030
80703C0030
80783C0030
80F8780030
80F8780030
80FC700030
81FCF00030
81FEF00030
80FFE00030
807FE00030
803FE00030
801FC00030
800FC00030
800FC00030
8007C00030
8007800030
8003800030
8003800030
8000000030
8000000030
FFFFFFFFF0
FFFFFFFFF0
ENDCHAR

STARTCHAR B
ENCODING 66
SWIDTH 616 0
DWIDTH 44 0
BBX 33 54 2 2
BITMAP
0000000600
0000000E00
0000001E00
0000003E00
0000003E00
0000007E00
0000007E00
000000FE00
000000FF00
000001FF00
000001FF00
000003FF00
000003FF80
000007FF00
000007FE00
00000FFC00
00000FF800
00000FF800
00001FF000
00001FE000
00001FC000
00003FC000
00003F8000
00007F0000
00007F0000
00007E0000
0000FC0000
0000FC0000
2000F80000
3001F80000
3001F00000
3801F00000
3803E00000
3803C00000
3C07C00000
3C07800000
3E0F800000
3E0F800000
7F0F000000
7F1F000000
FF9E000000
FF9E000000
7FBE000000
3FFC000000
1FFC000000
0FFC000000
07F8000000
03F8000000
03F8000000
01F8000000
00F0000000
00F0000000
0070000000
0070000000
ENDCHAR

STARTCHAR C
ENCODING 67
SWIDTH 740 0
DWIDTH 53 0
BBX 37 46 1 4
BITMAP
8000000000
E000000000
F000000000
FC00000000
FF00000000
7F80000000
1FE0000000
0FF8000000
03FC000000
00FF000000
007FC00000
001FE00000
0007F80000
0003FC0000
0000FF0000
00003FC000
00001FE000
000007F800
000001FE00
000000FF00
0000003FC0
0000000FF0
0000000FF8
0000001FE0
0000007F80
000000FF00
000003FC00
000007F800
00001FE000
00003FC000
0000FF0000
0001FC0000
0007F80000
001FE00000
003FC00000
00FF000000
01FE000000
07F8000000
0FF0000000
3FC0000000
7F80000000
FE00000000
FC00000000
F000000000
E000000000
8000000000
ENDCHAR

STARTCHAR D
ENCODING 68
SWIDTH 953 0
DWIDTH 69 0
BBX 61 57 4 0
BITMAP
0000000200000000
0000000200000000
0000000700000000
0000000700000000
0000000F80000000
0000000F80000000
0000001DC0000000
0000001DC0000000
00000018E0000000
00000038E0000000
0000003070000000
0000007070000000
0000007038000000
000000E038000000
000000E018000000
000001C01C000000
000001C01C000000
000003800E000000
000003800E000000
00007F0007F00000
1FFFFF0007FFFFC0
FFFFFC0001FFFFF8
7F000000000007F0
1E000000000001C0
0F00000000000780
0780000000000F00
03C0000000001E00
00E0000000003800
007800000000F000
003C00000001E000
001E00000003C000
0007000000078000
0003C000000E0000
0001E000003C0000
0000F00000780000
0000600000300000
0000600000300000
0000E00000380000
0000C00000180000
0000C00000180000
0001C000000C0000
00018000000C0000
00018000000E0000
0003800700060000
0003001FC0060000
0007007FF0070000
000600F8FC030000
000603E03E030000
000E0F800F838000
000C3F0003E18000
000CFC0000F98000
001FF000007FC000
001FC000001FC000
001F00000007C000
003C00000001E000
0030000000006000
0040000000001000
ENDCHAR

STARTCHAR E
ENCODING 69
SWIDTH 1048 0
DWIDTH 75 0
BBX 63 58 3 0
BITMAP
0000000100000000
0000000100000000
0000000300000000
0000000380000000
0000000780000000
00000007C0000000
0000000FC0000000
0000000FE0000000
0000001FE0000000
0000001FF0000000
0000003FF0000000
0000003FF8000000
0000003FF8000000
0000007FFC000000
0000007FFC000000
000000FFFE000000
000000FFFE000000
000001FFFF000000
000001FFFF000000
000003FFFFC00000
000FFFFFFFFFFC00
FFFFFFFFFFFFFFFE
7FFFFFFFFFFFFFF8
1FFFFFFFFFFFFFF0
0FFFFFFFFFFFFFE0
07FFFFFFFFFFFFC0
03FFFFFFFFFFFF80
00FFFFFFFFFFFF00
007FFFFFFFFFFC00
003FFFFFFFFFF800
001FFFFFFFFFF000
0007FFFFFFFFE000
0003FFFFFFFFC000
0001FFFFFFFF0000
0000FFFFFFFE0000
00003FFFFFFC0000
00003FFFFFF80000
00007FFFFFFC0000
00007FFFFFFC0000
00007FFFFFFC0000
0000FFFFFFFE0000
0000FFFFFFFE0000
0000FFFFFFFF0000
0001FFFFFFFF0000
0001FFFFFFFF0000
0001FFFFFFFF8000
0003FFFFFFFF8000
0003FFF87FFF8000
0003FFF01FFFC000
0007FFC007FFC000
0007FF0001FFC000
0007FC00007FE000
000FF000001FE000
000FC0000007E000
000F80000001F000
001E000000007000
0018000000001000
0020000000000800
ENDCHAR

STARTCHAR F
ENCODING 70
SWIDTH 732 0
DWIDTH 53 0
BBX 43 57 0 0
BITMAP
000001000000
000001000000
000001000000
000001800000
000001C00000
000001C00000
000001E00000
000001F00000
000001F80000
000001F80000
000001FC0000
000001FE0000
000001FE0000
000001FF0000
000001FF8000
FFFFFFFF8000
FFFFFFFFC000
FFFFFFFFE000
FFFFFFFFF000
FFFFFFFFF000
FFFFFFFFF800
FFFFFFFFFC00
FFFFFFFFFC00
FFFFFFFFFE00
FFFFFFFFFF00
FFFFFFFFFF80
FFFFFFFFFF80
FFFFFFFFFFC0
FFFFFFFFFFE0
FFFFFFFFFFC0
FFFFFFFFFF80
FFFFFFFFFF80
FFFFFFFFFF00
FFFFFFFFFE00
FFFFFFFFFE00
FFFFFFFFFC00
FFFFFFFFF800
FFFFFFFFF000
FFFFFFFFF000
FFFFFFFFE000
FFFFFFFFC000
FFFFFFFFC000
FFFFFFFF8000
FFFFFFFF0000
000001FE0000
000001FE0000
000001FC0000
000001F80000
000001F80000
000001F00000
000001E00000
000001C00000
000001C00000
000001800000
000001000000
000001000000
000001000000
ENDCHAR

STARTCHAR G
ENCODING 71
SWIDTH 732 0
DWIDTH 53 0
BBX 43 57 0 0
BITMAP
000001000000
000001000000
000001800000
000001800000
000001C00000
000001600000
000001300000
000001300000
000001180000
0000010C0000
000001040000
000001060000
000001030000
000001010000
000001018000
FFFFFF00C000
800000004000
800000006000
800000003000
800000001800
800000001800
800000000C00
800000000600
800000000600
800000000300
800000000180
800000000180
8000000001C0
8000000001E0
8000000003C0
800000000780
800000000780
800000000F00
800000001E00
800000003E00
800000003C00
800000007800
80000000F800
80000001F000
80000001E000
FFFFFF03C000
FFFFFF07C000
FFFFFF0F8000
0000010F0000
0000011F0000
0000013E0000
0000013C0000
0000017C0000
000001F80000
000001F00000
000001F00000
000001E00000
000001C00000
000001800000
000001800000
000001000000
000001000000
ENDCHAR

STARTCHAR H
ENCODING 72
SWIDTH 1000 0
DWIDTH 72 0
BBX 73 8 0 3
BITMAP
000000001FFFFFFFFF80
000000001FFFFFFFFF80
00000000000000000000
00000000000000000000
FFFFFFFFFFFFFFFFFF80
FFFFFFFFFFFFFFFFFF80
FFFFFFFFFFFFFFFFFF80
FFFFFFFFFFFFFFFFFF80
ENDCHAR

STARTCHAR I
ENCODING 73
SWIDTH 787 0
DWIDTH 57 0
BBX 40 53 1 0
BITMAP
FC00000000
FFE0000000
FFFC000000
FFFF800000
FFFFE00000
FFFFF80000
FFFFFC0000
FFFFFE0000
FFFFFF8000
07FFFFC000
01FFFFE000
007FFFF000
001FFFF800
0007FFFC00
0001FFFE00
0000FFFE00
00007FFF00
00003FFF80
00001FFF80
00000FFFC0
000007FFE0
000003FFE0
000003FFF0
000001FFF0
000000FFF8
000000FFF8
0000007FF8
0000007FFC
0000003FFC
0000003FFC
0000003FFE
0000001FFE
0000001FFE
0000001FFE
0000001FFE
0000001FFE
0000000FFE
0000000FFF
0000000FFF
0000000FFF
0000000FFF
0000000FFF
0000000FFE
0000000FFE
0000000FFE
0000001FFE
0000001FFE
0000001FFE
0000001FFE
0000001FFC
0000003FFC
0000003FFC
0000003FFC
ENDCHAR

STARTCHAR J
ENCODING 74
SWIDTH 756 0
DWIDTH 54 0
BBX 36 55 2 -6
BITMAP
7000000000
7800000000
FE00000000
7E00000000
7F000001E0
3F800003F0
1FC00007F0
0FC0000FF0
0FE0001FE0
07F0003FC0
03F0007F80
01F8007F80
01FC00FF00
00FC01FE00
007E01FE00
003F03FC00
003F03F800
001F87F000
000FCFF000
000FEFE000
0007FFC000
0007FF8000
0003FF8000
0003FF0000
0001FE0000
0001FC0000
0001FC0000
0003FE0000
0007FE0000
0007FF0000
000FDF8000
001FDF8000
001F8FC000
003F0FC000
007F07E000
007E07E000
00FE03F000
01FC03F000
01FC01F800
03F801F800
07F800FC00
07F000FC00
0FF000FE00
1FE0007E00
1FC0007E00
3FC0007F00
3F80003F00
3F00003F00
1C00003F80
0000001F80
0000001F80
0000001F80
0000000F80
0000000F80
0000000780
ENDCHAR

STARTCHAR K
ENCODING 75
SWIDTH 935 0
DWIDTH 67 0
BBX 49 57 2 0
BITMAP
FFC0000001FF00
7FE0000003FE00
3FF0000007FC00
1FF0000007F800
1FF800000FF800
0FFC00001FF000
07FC00001FE000
07FE00003FE000
03FE00007FC000
01FF00007F8000
00FF8000FF0000
00FF8001FF0000
007FC003FE0000
003FE003FC0000
003FE007FC0000
001FF00FF80000
000FF80FF00000
000FF81FF00000
0007FC3FE00000
0003FE7FC00000
0003FE7FC00000
0001FFFF800000
0000FFFF000000
00007FFE000000
00007FFE000000
00003FFC000000
00001FF8000000
00001FF8000000
00001FF8000000
00001FF8000000
00003FFC000000
00007FFE000000
00007FFE000000
0000FFFF000000
0001FFFF800000
0001FE7FC00000
0003FE7FC00000
0007FC3FE00000
0007FC1FF00000
000FF81FF00000
001FF00FF80000
001FF007FC0000
003FE007FE0000
007FC003FE0000
007FC001FF0000
00FF8001FF8000
01FF8000FF8000
01FF00007FC000
03FE00007FE000
07FE00003FF000
07FC00001FF000
0FF800001FF800
1FF800000FFC00
1FF0000007FC00
3FF0000007FE00
7FE0000003FF00
FFC0000001FF80
ENDCHAR

STARTCHAR L
ENCODING 76
SWIDTH 1000 0
DWIDTH 72 0
BBX 64 47 0 3
BITMAP
0038000000000000
00CA000000000000
010F000000000000
060CC00000000000
0C14700000000000
183C140000000000
1028160000000000
20581F0000000000
60F028C000000000
41A0286000000000
C340581000000000
8680500C00000000
D900B00600000000
F601A00180000000
18037800C0000000
10068C0030000000
0C19070018000000
0676018004000000
039800E003000000
00E0003001800000
0020001800600000
0018000600300000
00040003000C0000
00030000C0060000
0000800060010000
000060001800C000
000010000C006000
00000C0007001800
0000020001800C00
0000018000C00200
0000004000300300
0000003000180100
0000000800060180
0000000600030280
000000010000C240
00000000C0006C40
0000000060001420
0000000018001020
000000000C007010
0000000003004010
0000000001804008
0000000000418008
000000000031000C
00000000000E001C
000000000003E03E
00000000000007FE
000000000000000F
ENDCHAR

STARTCHAR M
ENCODING 77
SWIDTH 1440 0
DWIDTH 104 0
BBX 89 41 -1 -1
BITMAP
000000003FFFFFC000000000
0000000FFFFFFFFF00000000
000003FFFFFFFFFFF8000000
00000FFFFFFFFFFFFE000000
00003FFFFFFFFFFFFF000000
0000FFFFFFFFFFFFFFC00000
0001FFFFFFFFFFFFFFF00000
0007FFFFFFFFFFFFFFF80000
001FFFC0000000007FFE0000
007FFFDFFFFFFFFF7FFF8000
01FFFFDFFFFFFFFF7FFFC000
03FFFFDFFFFFFFFF7FFFF000
0FFFFFDFFFFFFFFF7FFFFC00
3FFFFFDFFFE0FFFF7FFFFE00
FFFFFFDFFE0007FF7FFFFF80
FFFFFFDFF00000FF7FFFFF80
FFFFFFDF8000003F7FFFFF80
FFFFFF9E0000000F3FFFFF80
FFFFFF3C000000079FFFFF80
FFFFFE7800000003CFFFFF80
FFFFF9F800000003E3FFFF80
FFFFF3F800000003F9FFFF80
FFFFC7F800000003FCFFFF80
FFFF9FFC00000007FE7FFF80
FFFF3FFC00000007FF9FFF80
7FFCFFFC00000007FFCFFF00
3FF9FFFE0000000FFFE7FE00
1FE3FFFF0000001FFFF1FC00
07CFFFFFE000007FFFFCF800
039FFFFFFC0003FFFFFE7000
003FFFFFFFC07FFFFFFF0000
00FFFFFFFFFFFFFFFFFFC000
00FFFFFFFFFFFFFFFFFFC000
00FFFFFFFFFFFFFFFFFFC000
00FFFFFFFFFFFFFFFFFFC000
00FFFFFFFFFFFFFFFFFFC000
00FFFFFFFFFFFFFFFFFFC000
00FFFFFFFFFFFFFFFFFFC000
00FFFFFFFFFFFFFFFFFFC000
00FFFFFFFFFFFFFFFFFFC000
00FFFFFFFFFFFFFFFFFFC000
ENDCHAR

STARTCHAR N
ENCODING 78
SWIDTH 1292 0
DWIDTH 93 0
BBX 71 47 1 -2
BITMAP
0000007FFFE0000000
001FFFFFFFFFFFC000
03FFFFFFFFFFFFFE00
0FFFFFFFFFFFFFFF80
1FFFFFFFFFFFFFFFE0
3FFFFFFFFFFFFFFFF0
3FFFF83FFFF83FFFF8
7FFFF7BFFFFFBFFFFC
7FFF0780000781FFFC
FFFF7FFFFFFFF9FFFE
FFFF7FFFFFFFF9FFFE
FFFEFFFFFFFFFDFFFE
FFFEFF810203FCFFFE
7FFDFF010203FEFFFE
7FFDFFFFFFFFFF7FFE
7FFBFE010201FF7FFC
7FE3FE010201FFBFFC
7F07FFFFFFFFFF8FFC
3007FC010300FFC0FC
000FFC010300FFE008
001FFFFFFFFFFFE000
001FF80103007FF000
003FF80103003FF000
003FFFFFFFFFFFF800
007FF00000003FFC00
007FF00000001FFC00
00FFE00000001FFE00
00FFFFFFFFFFFFFE00
00FFFFFFFFFFFFFF00
01FFFFFFFFFFFFFE80
010000000000000100
01FFFFFFFFFFFFFF80
01FFFFFFFFFFFFFF80
01FFFFFFFFFFFFFF80
01FFFFFFFFFFFFFF80
01FFFFFFFFFFFFFF80
01FFFFFFFFFFFFFF80
01FFFFFFFFFFFFFF80
01FFFFFFFFFFFFFF80
01FFFFFFFFFFFFFF80
01FFFFFFFFFFFFFF80
01FFFFFFFFFFFFFF80
01FFFFFFFFFFFFFF80
00FFFFFFFFFFFFFF00
007FFFFFFFFFFFFE00
000000000000000000
0001FE0000007F8000
ENDCHAR

STARTCHAR O
ENCODING 79
SWIDTH 1488 0
DWIDTH 107 0
BBX 93 41 0 4
BITMAP
000000000000000FFFFFE000
00000001FFFFFFF000001FF8
00003FFE0000000000000410
0007D10000000000000003F0
007811000000000000000020
0040110000000000000000C0
00802100000000000003FF00
0080210000000000001C0000
00802200000000001FE00000
010022000000000060000000
010022000000000780000000
010022000000003C00000000
010022000000004200000000
020042000001008200000000
020042000001010200000000
0200420000008F0100000000
020042000000F08080000000
040042000000504040000000
040044000000484040000000
080044000000482040000000
080084000000282040000000
080087FC0000304040000000
100084220000104080000000
100084210000088080000000
10008420C000050100000000
200084203000020200000000
200084200F00010400000000
2001044000F000C800000000
40010840000E003800000000
400108400001800800000000
400108800000400600000000
400109000000300180000000
8101090000000C1880000000
82810E000000020640000000
8C4208000000018140000000
8482100000000060C0000000
430210000000001840000000
400230000000000740000000
201FC00000000000C0000000
21E000000000000000000000
1E0000000000000000000000
ENDCHAR

STARTCHAR P
ENCODING 80
SWIDTH 1292 0
DWIDTH 93 0
BBX 71 30 -1 9
BITMAP
0000007FFC00000000
000003FFFFFFFFFFF8
00001FC007FFFFFFFC
0000FE0001E000000E
0001F00000F8000006
00078000003E00000E
FF3F0000000F00001C
FF7C00000003C01FF8
C36000000001FFFFF8
C3600003F8007FF000
C3600007FC00E00000
C36000060F01C00000
C360000E07FFC00000
C360000C3FFFE00000
C360001C7C00700000
C360007860003C0000
C36003F070001C0000
C37FFFC03800380000
C37FFE003FFFF00000
C36000003FFFF00000
C36000007C00F80000
C36000006000180000
C36000007C00F80000
C36000003FFFF00000
C36000001FFFC00000
C37000003E03E00000
C33E00003000600000
FF1FC01FFE03E00000
FF03FFFFFFFFC00000
00007FF003FE000000
ENDCHAR

STARTCHAR Q
ENCODING 81
SWIDTH 844 0
DWIDTH 61 0
BBX 45 46 0 5
BITMAP
003F80000000
001F80000000
001FC0000000
001FC0000000
000FE0000000
000FF0000000
000FF0000000
0007F8000000
0007F8000000
0007FC000000
0003FC000000
0003FE000000
0003FF000000
0001FF000000
0001FF800000
F001FF800000
F000FFC00000
7800FFE00000
7800FFE00000
7C007FF00000
7FFFFFFFFFF0
7FFFFFFFFFF0
3FFFFFFFFFF8
3FFFFFFFFFF8
7FFFFFFFFFF8
7FFFFFFFFFF0
7C007FF00000
7800FFE00000
7800FFE00000
F000FFC00000
E001FF800000
0001FF800000
0001FF000000
0003FF000000
0003FE000000
0003FC000000
0007FC000000
0007F8000000
0007F8000000
000FF0000000
000FF0000000
000FE0000000
001FC0000000
001FC0000000
001F80000000
003F80000000
ENDCHAR

STARTCHAR R
ENCODING 82
SWIDTH 1195 0
DWIDTH 86 0
BBX 54 46 1 0
BITMAP
001FFFFFFFE000
003FFFFFFFF000
007FFFFFFFF800
007E000000F800
00780000003C00
00F80000003C00
00F00000003C00
01F00000003E00
01F00000001E00
01F00000001E00
03E00000001F00
03E00000001F00
03C00000000F80
07C00000000F80
07FFFFFFFFFF80
1FFFFFFFFFFFC0
3FFFFFFFFFFFE0
3FFFFFFFFFFFF0
7FFFFFFFFFFFF0
FE1FFFFFFFF0F8
FC0FFFFFFFE078
F807FFFFFFC03C
F807FFFFFFC03C
F807FFFFFFC03C
FC0FFFFFFFE07C
FE1FFFFFFFF0FC
FFFFFFFFFFFFFC
FFFFFFFFFFFFFC
FFFFFFFFFFFFFC
FFFFFFFFFFFFFC
FFFFFFFFFFFFFC
FFFFFFFFFFFFFC
FFFFFFFFFFFFFC
FFFFFFFFFFFFFC
FFFFFFFFFFFFFC
FFFFFFFFFFFFFC
0FC00000001F80
0FC00000001F80
0FC00000001F80
0FC00000001F80
0FC00000001F80
0FC00000001F80
0FC00000001F80
0FC00000001F80
0FC00000001F80
07800000000F00
ENDCHAR

STARTCHAR S
ENCODING 83
SWIDTH 1376 0
DWIDTH 99 0
BBX 85 40 0 3
BITMAP
FFFFFFFFFFFFFFFFFFFFF8
C000000000000000000018
B000000000000000000068
8C00000000000000000188
8200000000000000000208
8180000000000000000C08
8060000000000000001008
8010000000000000006008
800C000000000000018008
8003000000000000020008
80008000000000000C0008
8000600000000000300008
8000180000000000400008
8000040000000001800008
8000030000000002000008
800000C00000000C000008
8000002000000030000008
8000001800000040000008
80000026000003A0000008
80000041E0001C10000008
800000801F00E008000008
8000030000FF0006000008
8000040000000001000008
8000080000000000800008
8000100000000000400008
8000200000000000200008
8000C00000000000180008
8001000000000000040008
8002000000000000020008
8004000000000000010008
801800000000000000C008
8020000000000000002008
8040000000000000001008
8080000000000000000808
8100000000000000000408
8600000000000000000308
8800000000000000000088
9000000000000000000048
A000000000000000000028
FFFFFFFFFFFFFFFFFFFFF8
ENDCHAR

STARTCHAR T
ENCODING 84
SWIDTH 1098 0
DWIDTH 79 0
BBX 57 59 2 -1
BITMAP
0000010040000000
0040020020020000
0020020010040000
0010040010040000
0010040008040000
0008080004080000
0004080002080000
0004100002100180
8000100000100E00
7000600006007000
0E03FC003FC38000
0187FF00FFE00000
001FFF80FFF80000
001FFF007FFC0000
003FF8001FFE0000
003FE0FFE7FE0000
007F07FFF9FE0000
007C0FFFFC7E0000
00603FF07F1E0000
00007F0207860000
0001FE1F83E00000
0003F81F80F00000
0007E00F80380000
000FE00F80180000
000FC00F000C0000
001F800F00060000
001F800F00060000
003F800700060000
007F800700070000
007F000700030000
007F000700030000
007F000600030000
007F000200030000
007F000200030000
007F000200030000
007F800180030000
007F8001C0030000
003F8000F0070000
001F80007C060000
001FC0007C0E0000
001FC0003C1C0000
000FE0003C180000
000FF00000380000
0007F00000700000
0003F80000E00000
0001FC0001E40000
0000FE0003CC0000
00017FE00F980000
00019FFFFE700000
0000CFFFFDE00000
000039FFF7E00000
00003F0003F00000
00007E0001F80000
0000FC0000FE0000
0007F800007E0000
0007F000003E0000
0003E000001E0000
0003C00000000000
0003C00000000000
ENDCHAR

STARTCHAR U
ENCODING 85
SWIDTH 992 0
DWIDTH 71 0
BBX 55 55 2 2
BITMAP
00000008000000
00000008000000
00000008000000
00000008000000
00000008000000
00000008000000
00000008000000
00200000000000
00100000000800
00080000002000
00060000004000
0001007E018000
00000381C00000
00000C00700000
00001800180000
000060000C0000
0000C000060000
00008000030000
00010000010000
00030000018000
00020000008006
00020000008038
F8040000004180
0784009B004000
00040144804000
00040600604000
00040300C04000
00040180804000
00040181804000
000600C3008000
000200C3008000
000200C3018000
000300C3010000
000180C3030000
000080C3020000
0000E0C3040000
000070C3180000
00001CC3300000
000004C3200000
000004C3200000
000004C3200000
000004C3200000
000004C3200000
000004C3200000
000004C3200000
000004C3200000
000004C3200000
000004C3200000
000007FFE00000
00000000000000
000003FFC00000
00000000000000
000003FFC00000
00000000000000
000001FF800000
ENDCHAR

STARTCHAR V
ENCODING 86
SWIDTH 1175 0
DWIDTH 85 0
BBX 63 55 0 0
BITMAP
03FFFFFFFFF00000
07FFFFFFFFF80000
07FFFFFFFFF80000
07C0000000F80000
0780000000780000
0780000000780000
0780000000780000
0780000000780000
0780000000780000
0780000000780000
0780000000780000
0780000000780000
0780000000780000
0780000000780000
0780000000780000
0780000000780000
0780000000780000
0780000000780000
0780000000780000
0780000000780000
0780000000780000
0780000000780000
0780000000780000
0780000000780000
0780000000780000
0780000000780000
0780000000780000
07C0000000F80000
07FFFFFFFFF80000
07FFFFFFFFF80000
07FFFFFFFFF80000
03FFFFFFFFF00000
03FFFFFFFFF00000
0007FFFFF8000000
0000000000000000
0000000000000C00
07FFFFFFFFFFFFE0
07FFFFFFFFF80030
07FFFFFFFFF80018
07FFFFFFFFF80008
07FFFFFFFFF80018
07FFFFFFFFF80070
07FFFFFFFFF807E0
07FFFFFFFFF81C00
0000000000002000
07FFFFFFFFF83000
0FFFFFFFFFFC1E00
0C000000F80C0100
1C000000FC0E0000
18000000FC0601F8
38000000FC0703FE
38000000FE0703FE
70000000FE0383FE
7FFFFFFFFFFF81FC
FFFFFFFFFFFFC000
ENDCHAR

STARTCHAR W
ENCODING 87
SWIDTH 790 0
DWIDTH 57 0
BBX 42 46 1 2
BITMAP
000018000000
0000FE000000
0003C3C00000
000F00700000
0038001E0000
01E000038000
07800000F000
1C0000001C00
F00000000700
C000000001C0
F80000000FC0
9F0000003EC0
87C00000F8C0
80F80003C0C0
803E000F00C0
8007C03C00C0
8001F9F000C0
80003FC000C0
80000E0000C0
8000060000C0
8000060000C0
8000060000C0
8000060000C0
8000060000C0
8000060000C0
8000060000C0
8000060000C0
8000060000C0
8000060000C0
8000060000C0
8000060000C0
8000060000C0
8000060000C0
8000060000C0
8000060000C0
6000060003C0
180006000F00
070006003C00
01C006007000
00700601E000
001C06078000
0007061E0000
0001C6780000
00007FE00000
00001F800000
000006000000
ENDCHAR

STARTCHAR X
ENCODING 88
SWIDTH 860 0
DWIDTH 62 0
BBX 43 47 1 1
BITMAP
FFFFFFFFFFE0
FFFFFFFFFFE0
FFFFFFFFFFE0
FFFFFFFFFFE0
FFFFFDFFFFE0
FFFFFCFFFFE0
FFFFFC7FFFE0
FFFFFC7FFFE0
FFFFFC3FFFE0
FFFFFC1FFFE0
FFFFFC0FFFE0
FFFFFC07FFE0
00000007FFE0
00000003FFE0
00000001FFE0
00000000FFE0
000000007FE0
000000007FE0
000000003FE0
000000001FE0
000000000FE0
0000000007E0
0000000007E0
0000000007E0
0000000007E0
000000000FE0
000000001FE0
000000003FE0
000000003FE0
000000007FE0
00000000FFE0
00000001FFE0
00000001FFE0
00000003FFE0
00000007FFE0
FFFFFC0FFFE0
FFFFFC0FFFE0
FFFFFC1FFFE0
FFFFFC3FFFE0
FFFFFC7FFFE0
FFFFFC7FFFE0
FFFFFCFFFFE0
FFFFFDFFFFE0
FFFFFDFFFFE0
FFFFFFFFFFE0
FFFFFFFFFFE0
FFFFFFFFFFE0
ENDCHAR

STARTCHAR Y
ENCODING 89
SWIDTH 804 0
DWIDTH 58 0
BBX 44 54 1 0
BITMAP
000000800000
000000800000
000000C00000
000000E00000
000000A00000
000000B00000
000000980000
0000008C0000
0000008C0000
000000860000
000000A30000
000000A18000
000000B18000
000000B8C000
000000A86000
000000A47000
FFFFFFA63000
800000231800
800000211C00
BFFFFFE18E00
A0000000C600
A00000004300
A00000006380
A000000031C0
A000000018C0
A000000018E0
A00000000C70
A00000000430
A00000000C30
A00000000860
A000000010C0
A00000002080
A00000006180
A00000004300
A00000008600
BFFFFFE10400
800000210C00
800000221800
FFFFFFA43000
000000A86000
000000A84000
000000B0C000
000000A18000
000000A30000
000000820000
000000860000
0000008C0000
000000980000
000000B00000
000000B00000
000000E00000
000000C00000
000000800000
000000800000
ENDCHAR

STARTCHAR Z
ENCODING 90
SWIDTH 1220 0
DWIDTH 88 0
BBX 65 48 2 0
BITMAP
800000000000000000
600000000000000000
7C0000000000000000
338000000000000000
18E000000000000000
0C1C00000000000000
060380000000000000
030060000000000000
01801C000000000000
00C003800000000000
004000700000000000
0020001C0000000000
001000038000000000
001800007000000000
000C00000C00000000
000600000380000000
000300000070000000
00018000000C000000
0000C0000003800000
000060000000700000
0000300000000E0000
000018000000018000
00000C000000007000
000006000000000E00
000007FFFFFFFFFF80
000003FFFFFFFFFF80
000007FFFFFFFFFC00
00000FFFFFFFFFF000
00001FFFFFFFFF8000
00003FFFFFFFFC0000
00007FFFFFFFE00000
0000FFFFFFFF000000
0001FFFFFFF8000000
0003FFFFFFC0000000
0007FFFFFE00000000
000FFFFFF000000000
001FFFFF8000000000
003FFFFC0000000000
007FFFF00000000000
00FFFF800000000000
01FFFC000000000000
03FFE0000000000000
07FF00000000000000
0FF800000000000000
1FC000000000000000
3E0000000000000000
700000000000000000
800000000000000000
ENDCHAR

STARTCHAR bracketleft
ENCODING 91
SWIDTH 1260 0
DWIDTH 91 0
BBX 69 28 1 8
BITMAP
000000000100000000
0000000000C0000000
000000000070000000
00000000003C000000
00000000001F800000
00000000000FE00000
000000000007F80000
000000000003FE0000
000000000001FF8000
000000000000FFF000
0000000000007FFC00
FFFFFFFFFFFFFFFF00
FFFFFFFFFFFFFFFFC0
FFFFFFFFFFFFFFFFF8
FFFFFFFFFFFFFFFFE0
FFFFFFFFFFFFFFFF80
0000000000007FFE00
000000000000FFF800
000000000001FFE000
000000000003FF8000
000000000007FE0000
000000000007F00000
00000000000FC00000
00000000001F000000
00000000003C000000
000000000070000000
0000000000C0000000
000000000100000000
ENDCHAR

STARTCHAR backslash
ENCODING 92
SWIDTH 915 0
DWIDTH 66 0
BBX 46 46 1 2
BITMAP
000003000000
000023100000
000073380000
00003B700000
00301FE03000
00300F803000
013007003200
03B063183700
01F333333E00
00F1B3363C00
0FF19B663FC0
0FF8DB6C7FC0
001CDFECE000
000ECFCDC000
00876FDB8400
00E3E79F1C00
007DF7BEF800
411FF33FE208
E1C7FB7F8F1C
70F0FB7C3E38
383E3FF1F870
1C078FC7C0E0
FFFFFFFFFFFC
FFFFFFFFFFFC
1803CFCF8060
301F1FE3F030
607CFB7CFC18
C1E7F33F9F0C
41BFF7BFF608
00FDE79E7C00
00E3EFDF0C00
0007EFDF8000
000ECB4DC000
0E1CDB6CE1C0
1FF99B667FE0
03F1B3363F00
00F333333C00
01F3631B3E00
03B063183700
003003003000
003007803000
00300FC03000
00001B600000
000073380000
000023100000
000003000000
ENDCHAR

STARTCHAR bracketright
ENCODING 93
SWIDTH 1292 0
DWIDTH 93 0
BBX 70 29 1 9
BITMAP
000001FFFBFFE00000
00000FFFFEFFFFFFF8
00007FFFFF3FFFFFFC
0001FFFFFFDFFFFFFC
0007FFFFFFF7FFFFFC
001FFFFFFFFDFFFFFC
FC7FFFFFFFFE7FFFF8
FCFFFFFFFFFF800000
FCFFFFFFFFFFC00000
FCFFFFF80FFF800000
FCFFFFFFFFFF000000
FCFFFFF7F8FE000000
FCFFFFEFCFFFC00000
FCFFFFDF1FFFE00000
FCFFFF7F3FFFF00000
FCFFFDFF3FFFF00000
FCFFE7FFBFFFE00000
FCC03FFFCFFFC00000
FCFFFFFFCFFF800000
FCFFFFFFBFFFE00000
FCFFFFFF3FFFE00000
FCFFFFFF3FFFE00000
FCFFFFFFCFFF800000
FCFFFFFFEFFE000000
FCFFFFFFFFFF800000
FC7FFFFFFFFF800000
001FFFFFDFFF000000
0007FFFFEFFE000000
00007FFFC000000000
ENDCHAR

STARTCHAR asciicircum
ENCODING 94
SWIDTH 940 0
DWIDTH 68 0
BBX 38 2 14 20
BITMAP
FFFFFFFFFC
FFFFFFFFFC
ENDCHAR

STARTCHAR underscore
ENCODING 95
SWIDTH 1164 0
DWIDTH 84 0
BBX 65 2 9 20
BITMAP
FFFFFFFFFFFFFFFF80
FFFFFFFFFFFFFFFF80
ENDCHAR

STARTCHAR grave
ENCODING 96
SWIDTH 720 0
DWIDTH 52 0
BBX 36 35 1 9
BITMAP
0003FC0000
001F0F8000
007000E000
01C0003000
0300000C00
0600000600
0C00000300
1800000100
1000000080
30000000C0
2000000040
6000000060
4000000020
4000000020
C000000020
C000000030
8000000030
8000000030
8000000010
C000000030
C000000030
C000000020
4000000020
4000000060
6000000040
20000000C0
1000000080
1800000180
0C00000300
0600000600
0300000C00
0180003800
00E0006000
003C038000
0007FE0000
ENDCHAR

STARTCHAR a
ENCODING 97
SWIDTH 720 0
DWIDTH 52 0
BBX 35 35 5 9
BITMAP
0007F80000
001FFF0000
007FFFC000
01FFFFF000
03FFFFF800
07FFFFFC00
0FFFFFFE00
1FFFFFFE00
1FFFFFFF00
3FFFFFFF80
3FFFFFFF80
7FFFFFFFC0
7FFFFFFFC0
7FFFFFFFC0
FFFFFFFFC0
FFFFFFFFE0
FFFFFFFFE0
FFFFFFFFE0
FFFFFFFFE0
FFFFFFFFE0
FFFFFFFFE0
7FFFFFFFC0
7FFFFFFFC0
7FFFFFFFC0
7FFFFFFF80
3FFFFFFF80
1FFFFFFF00
1FFFFFFF00
0FFFFFFE00
07FFFFFC00
03FFFFF800
01FFFFF000
00FFFFC000
003FFF8000
0007FC0000
ENDCHAR

STARTCHAR b
ENCODING 98
SWIDTH 1272 0
DWIDTH 92 0
BBX 77 33 3 7
BITMAP
000000000000003F8000
00000000000001FFE000
00000000000007FFF800
0000000000000FFFFE00
0000000000003FFFFF00
0000000000003FFFFF80
0000001F80007FFFFF80
0000007FE000FFFFFFC0
000001FFF801FFFFFFE0
0F8003FFF801FFFFFFE0
1FE003FFFC03FFFFFFF0
3FF007FFFE03FFFFFFF0
7FF007FFFE03FFFFFFF0
FFF80FFFFF03FFFFFFF8
FFF80FFFFF07FFFFFFF8
FFF80FFFFF07FFFFFFF8
FFF80FFFFF07FFFFFFF8
FFF80FFFFF07FFFFFFF8
7FF00FFFFF07FFFFFFF8
7FF007FFFE07FFFFFFF8
3FE007FFFE03FFFFFFF0
0F8007FFFC03FFFFFFF0
000003FFFC03FFFFFFF0
000001FFF801FFFFFFE0
000000FFE001FFFFFFE0
0000001F8000FFFFFFC0
000000000000FFFFFFC0
0000000000007FFFFF80
0000000000003FFFFF00
0000000000001FFFFE00
0000000000000FFFFC00
00000000000003FFF000
000000000000007FC000
ENDCHAR

STARTCHAR c
ENCODING 99
SWIDTH 556 0
DWIDTH 40 0
BBX 26 51 0 0
BITMAP
F0000000
FF000000
FFC00000
FFF00000
FFFC0000
FFFE0000
FFFF0000
FFFFC000
FFFFE000
FFFFE000
FFFFF000
FFFFF800
FFFFFC00
FFFFFC00
FFFFFE00
FFFFFE00
FFFFFF00
FFFFFF00
FFFFFF80
FFFFFF80
FFFFFF80
FFFFFF80
FFFFFFC0
FFFFFFC0
FFFFFFC0
FFFFFFC0
FFFFFFC0
FFFFFFC0
FFFFFFC0
FFFFFF80
FFFFFF80
FFFFFF80
FFFFFF80
FFFFFF00
FFFFFF00
FFFFFE00
FFFFFE00
FFFFFC00
FFFFFC00
FFFFF800
FFFFF000
FFFFE000
FFFFC000
FFFF8000
FFFF0000
FFFE0000
FFFC0000
FFF00000
FFC00000
FF000000
F8000000
ENDCHAR

STARTCHAR d
ENCODING 100
SWIDTH 616 0
DWIDTH 44 0
BBX 29 56 3 1
BITMAP
80000000
60000000
1C000000
03000000
01E00000
00780000
001E0000
000F0000
0007C000
0001F000
0000F800
00007C00
00003E00
00001F00
00001F00
00000F80
000007C0
000007C0
000003E0
000003E0
000003E0
000003F0
000001F0
000003F0
000003F0
000003F8
000003F8
000003F8
000007F8
000007F8
00000FF8
00000FF0
00001FF0
00001FF0
00003FF0
00007FF0
0000FFE0
0001FFE0
0003FFC0
0007FFC0
000FFF80
001FFF80
007FFF00
01FFFF00
07FFFE00
7FFFFC00
7FFFF800
7FFFF000
7FFFE000
7FFFC000
7FFF8000
7FFE0000
7FFC0000
7FF00000
7FC00000
7C000000
ENDCHAR

STARTCHAR e
ENCODING 101
SWIDTH 956 0
DWIDTH 69 0
BBX 55 53 2 0
BITMAP
000003C0000000
000000F0000000
00000038000000
0000000E000000
00000007800000
00000001E00000
00000000780000
000000001E0000
00000000070000
0000000003C000
0000000000F000
00000000003C00
00000000000F00
00000000000380
000000000001E0
00000000000078
0000000000001E
0000000000003C
00000000000078
000000000000F0
000000000003E0
000000000007C0
00000000001F80
00000000003F80
0000000000FF00
0000000001FE00
0000000007FC00
000000000FF800
000000001FF000
000000007FE000
00000000FFC000
00000003FF8000
00000007FF0000
0000001FFF0000
0000003FFE0000
000000FFFC0000
000001FFF80000
000003FFF00000
00000FFFE00000
00001FFFC00000
00007FFF800000
0000FFFF000000
0003FFFF000000
0007FFFE000000
000FFFFC000000
003FFFF8000000
007FFFF0000000
01FFFFE0000000
03FFFFC0000000
0FFFFF80000000
1FFFFF00000000
7FFFFE00000000
FFFFFE00000000
ENDCHAR

STARTCHAR f
ENCODING 102
SWIDTH 932 0
DWIDTH 67 0
BBX 54 53 3 0
BITMAP
00000020000000
00000070000000
00000070000000
000000F8000000
000000F8000000
000001FC000000
000001FC000000
000003FE000000
000003FE000000
000007FF000000
000007FF000000
00000FF7800000
00000FF3800000
00001FF3C00000
00001FE1C00000
00003FE1E00000
00003FE0E00000
00007FC0F00000
00007FC0700000
0000FFC0780000
0000FF80380000
0001FF803C0000
0001FF801C0000
0003FF001E0000
0003FF000E0000
0003FF000F0000
0007FE00070000
0007FE00078000
000FFE00038000
000FFE0003C000
001FFC0001C000
001FFC0001E000
003FFC0000E000
003FF80000F000
007FF800007000
007FF800007800
00FFF000003800
00FFF000003C00
01FFF000001C00
01FFE000001E00
03FFE000000E00
03FFE000000F00
07FFC000000700
07FFC000000780
0FFFC000000380
0FFFC0000003C0
1FFF80000001C0
1FFF80000001E0
3FFF80000000F0
3FFF00000000F0
7FFF0000000078
7FFFFFFFFFFFF8
FFFFFFFFFFFFFC
ENDCHAR

STARTCHAR g
ENCODING 103
SWIDTH 956 0
DWIDTH 69 0
BBX 57 39 4 7
BITMAP
0000000C00000000
0000001C00000000
0000001E00000000
0000003F00000000
0000007F80000000
000000FF80000000
000000FFC0000000
000001FFE0000000
000003FFF0000000
000003FFF0000000
000007FFF8000000
00000FFFFC000000
00001FFFFC000000
00001FFFFE000000
00003FFFFF000000
00007FFFFF800000
00007FFFFF800000
0000FFFFFFC00000
0001FFFFFFE00000
0003FFFFFFF00000
0003FFFFFFF00000
0007FFFFFFF80000
000FFFFFFFFC0000
001FFFFFFFFE0000
001FFFFFFFFE0000
003FFFFFFFFF0000
007FFFFFFFFF8000
007FFFFFFFFF8000
00FFFFFFFFFFC000
01FFFFFFFFFFE000
03FFFFFFFFFFF000
03FFFFFFFFFFF000
07FFFFFFFFFFF800
0FFFFFFFFFFFFC00
0FFFFFFFFFFFFE00
1FFFFFFFFFFFFE00
3FFFFFFFFFFFFF00
7FFFFFFFFFFFFF80
FFFFFFFFFFFFFF80
ENDCHAR

STARTCHAR h
ENCODING 104
SWIDTH 620 0
DWIDTH 45 0
BBX 35 46 3 5
BITMAP
0000600000
0000F00000
0000F80000
0001F80000
0003FC0000
0007FE0000
000FFF0000
000FFF0000
001FFF8000
003FFFC000
007FFFE000
00FFFFE000
00FFFFF000
01FFFFF800
03FFFFFC00
07FFFFFC00
0FFFFFFE00
0FFFFFFF00
1FFFFFFF80
3FFFFFFF80
7FFFFFFFC0
FFFFFFFFE0
7FFFFFFFC0
3FFFFFFFC0
3FFFFFFF80
1FFFFFFF00
0FFFFFFF00
07FFFFFE00
07FFFFFC00
03FFFFFC00
01FFFFF800
01FFFFF000
00FFFFF000
007FFFE000
003FFFC000
003FFFC000
001FFF8000
000FFF0000
000FFF0000
0007FE0000
0003FC0000
0001FC0000
0001F80000
0000F80000
0000700000
0000600000
ENDCHAR

STARTCHAR i
ENCODING 105
SWIDTH 620 0
DWIDTH 45 0
BBX 35 46 3 5
BITMAP
0000600000
0000F00000
0000F80000
0001F80000
0003FC0000
0007FE0000
000FCF0000
000FC70000
001FC38000
003F83C000
007F81E000
00FF00E000
00FF007000
01FE007800
03FE003C00
07FC001C00
0FFC000E00
0FF8000F00
1FF8000780
3FF0000380
7FF00001C0
FFE00001E0
7FE00001C0
3FF00003C0
3FF0000380
1FF8000700
0FF8000F00
07FC000E00
07FC001C00
03FC003C00
01FE003800
01FE007000
00FF00F000
007F00E000
003F81C000
003F83C000
001F838000
000FC70000
000FCF0000
0007EE0000
0003FC0000
0001FC0000
0001F80000
0000F80000
0000700000
0000600000
ENDCHAR

STARTCHAR j
ENCODING 106
SWIDTH 1023 0
DWIDTH 74 0
BBX 66 38 3 9
BITMAP
00000000E000000000
00000003F000000000
0000000FFC00000000
0000001FFE00000000
0000007FFF80000000
000001FFFFE0000000
000007FFFFF0000000
00001FFFFFFC000000
00007FFFFFFF000000
0000FFFFFFFF800000
0003FFFFFFFFE00000
0007FFFFFFFFF00000
001FFFFFFFFFFC0000
007FFFFFFFFFFF0000
01FFFFFFFFFFFF8000
07FFFFFFFFFFFFE000
0FFFFFFFFFFFFFF800
3FFFFFFFFFFFFFFC00
FFFFFFFFFFFFFFFF00
3FFFFFFFFFFFFFFFC0
1FFFFFFFFFFFFFFF00
07FFFFFFFFFFFFFC00
01FFFFFFFFFFFFF800
00FFFFFFFFFFFFE000
003FFFFFFFFFFF8000
000FFFFFFFFFFE0000
0007FFFFFFFFF80000
0001FFFFFFFFF00000
00007FFFFFFFC00000
00003FFFFFFF800000
00000FFFFFFE000000
000007FFFFF8000000
000001FFFFE0000000
0000007FFF80000000
0000003FFF00000000
0000000FFC00000000
00000003F000000000
00000001C000000000
ENDCHAR

STARTCHAR k
ENCODING 107
SWIDTH 930 0
DWIDTH 67 0
BBX 60 57 3 0
BITMAP
0000000400000000
0000000400000000
0000000400000000
0000000400000000
0000000400000000
0000000400000000
0000000600000000
0000000E00000000
0000000E00000000
0000000E00000000
0000000F00000000
0000001F00000000
0000001F00000000
0000003F80000000
0000003F80000000
0000007FC0000000
0000007FC0000000
000000FFE0000000
000001FFF0000000
000003FFF8000000
000007FFFC000000
00000FFFFE000000
00001FFFFF000000
00003FFFFF800000
0000FFFFFFE00000
0003FFFFFFF00000
000FFFFFFFFE0000
00FFFFFFFFFFC000
FFFFFFFFFFFFFFF0
00FFFFFFFFFF8000
001FFFFFFFFC0000
0003FFFFFFF00000
0001FFFFFFC00000
00007FFFFF800000
00003FFFFF000000
00000FFFFE000000
000007FFFC000000
000003FFF8000000
000001FFF0000000
000001FFE0000000
000000FFE0000000
0000007FC0000000
0000007FC0000000
0000003F80000000
0000003F80000000
0000001F00000000
0000001F00000000
0000001F00000000
0000000E00000000
0000000E00000000
0000000E00000000
0000000600000000
0000000600000000
0000000400000000
0000000400000000
0000000400000000
0000000400000000
ENDCHAR

STARTCHAR l
ENCODING 108
SWIDTH 548 0
DWIDTH 39 0
BBX 23 51 4 0
BITMAP
C00000
E00000
F00000
F00000
F80000
FC0000
FE0000
FF0000
FF8000
FFC000
FFE000
FFF000
FFF800
FFFC00
FFFE00
FFFF00
FFFF00
FFFF80
FFFFC0
FFFFE0
FFFFF0
FFFFF8
FFFFFC
FFFFFE
FFFFFC
FFFFF8
FFFFF0
FFFFF0
FFFFE0
FFFFC0
FFFF80
FFFF00
FFFF00
FFFE00
FFFC00
FFF800
FFF800
FFF000
FFE000
FFC000
FF8000
FF8000
FF0000
FE0000
FC0000
FC0000
F80000
F00000
E00000
C00000
C00000
ENDCHAR

STARTCHAR m
ENCODING 109
SWIDTH 896 0
DWIDTH 65 0
BBX 51 18 4 15
BITMAP
FFFFFFFFFFFFE0
7FFFFFFFFFFF00
3FFFFFFFFFFC00
3FFFFFFFFFF000
1FFFFFFFFFC000
1FFFFFFFFE0000
0FFFFFFFF80000
07FFFFFFE00000
07FFFFFF000000
03FFFFFC000000
03FFFFF0000000
01FFFFC0000000
01FFFE00000000
00FFF800000000
007FE000000000
007F0000000000
003C0000000000
00300000000000
ENDCHAR

STARTCHAR n
ENCODING 110
SWIDTH 1000 0
DWIDTH 72 0
BBX 65 30 2 11
BITMAP
C00000000000000000
3C0000000000000000
07C000000000000000
00FC00000000000000
003FE0000000000000
0007FE000000000000
0001FFE00000000000
00003FFF0000000000
00000FFFF000000000
000001FFFF00000000
0000007FFFF8000000
0000001FFFFF800000
00000003FFFFFC0000
00000000FFFFFFC000
000000001FFFFFFC00
0000000007FFFFFF80
0000000000FFFFFC00
00000000003FFFE000
00000000000FFF0000
00000000003FF80000
0000000000FF800000
0000000003FC000000
000000000FE0000000
000000003F00000000
00000001F800000000
00000007C000000000
0000001C0000000000
000000E00000000000
000003000000000000
000004000000000000
ENDCHAR

STARTCHAR o
ENCODING 111
SWIDTH 1000 0
DWIDTH 72 0
BBX 69 21 0 16
BITMAP
000000000400000000
000000000700000000
000000000780000000
0000000007E0000000
0000000007F0000000
0000000007FC000000
0000000007FE000000
0000000007FF800000
0000000007FFE00000
0000000007FFF00000
FFFFFFFFFFFFFC0000
FFFFFFFFFFFFFE0000
FFFFFFFFFFFFFF8000
FFFFFFFFFFFFFFC000
FFFFFFFFFFFFFFF000
FFFFFFFFFFFFFFF800
FFFFFFFFFFFFFFFE00
FFFFFFFFFFFFFFFF00
FFFFFFFFFFFFFFFFC0
FFFFFFFFFFFFFFFFE0
FFFFFFFFFFFFFFFFF8
ENDCHAR

STARTCHAR p
ENCODING 112
SWIDTH 1096 0
DWIDTH 79 0
BBX 71 21 1 13
BITMAP
0000FFFFFFFFFFFFFE
0001FFFFFFFFFFFFFC
0003FFFFFFFFFFFFF8
0003FFFFFFFFFFFFF0
0007FFFFFFFFFFFFF0
000FFFFFFFFFFFFFE0
001FFFFFFFFFFFFFC0
001FFFFFFFFFFFFFC0
003FFFFFFFFFFFFF80
007FFFFFFFFFFFFF00
00FFFFFFFFFFFFFF00
00FFFFFFFFFFFFFE00
01FFFFFFFFFFFFFC00
03FFFFFFFFFFFFFC00
07FFFFFFFFFFFFF800
0FFFFFFFFFFFFFF000
0FFFFFFFFFFFFFF000
1FFFFFFFFFFFFFE000
3FFFFFFFFFFFFFC000
7FFFFFFFFFFFFFC000
FFFFFFFFFFFFFF8000
ENDCHAR

STARTCHAR q
ENCODING 113
SWIDTH 704 0
DWIDTH 51 0
BBX 43 58 0 0
BITMAP
000000FFFF60
000000FFFE40
000001FFFEC0
000001FFFC80
000003FFFC80
000003FFFD80
000003FFF900
000007FFFB00
000007FFF200
00000FFFF200
00000FFFF600
00001FFFE400
00001FFFEC00
00001FFFC800
00003FFFD800
00003FFFD800
00007FFF9000
00007FFFB000
00007FFF2000
0000FFFF6000
0000FFFF4000
0001FFFE4000
0001FFFEC000
0003FFFC8000
0003FFFD8000
0003FFF90000
0007FFFB0000
0007FFFB0000
000FFFF20000
000FFFF60000
000FFFE40000
001FFFEC0000
001FFFEC0000
003FFFC80000
003FFFD80000
007FFF900000
007FFFB00000
007FFFA00000
00FFFF600000
00FFFF600000
01FFFE400000
01FFFEC00000
01FFFE800000
03FFFD800000
03FFFD800000
07FFF9000000
07FFFB000000
0FFFF2000000
0FFFF6000000
0FFFF6000000
1FFFEC000000
1FFFEC000000
3FFFC8000000
3FFFD8000000
3FFFD8000000
7FFFB0000000
7FFFB0000000
FFFF60000000
ENDCHAR

STARTCHAR r
ENCODING 114
SWIDTH 1036 0
DWIDTH 75 0
BBX 70 57 0 0
BITMAP
00000000000000007C
0000000000000000F8
0000000000000000F8
0000000000000001F8
0000000000000001F0
0000000000000003F0
0000000000000003E0
0000000000000007E0
000000000000000FE0
000000000000000FC0
000000000000001FC0
000000000000001FC0
000000000000003F80
000000000000003F80
000000000000007F00
000000000000007F00
00000000000000FF00
00000000000000FE00
00000000000001FE00
00000000000001FE00
00000000000003FC00
00000000000003FC00
00000000000007FC00
00000000000007F800
0000000000000FF800
0000000000000FF000
0000000000001FF000
0000000000001FF000
0000000000003FE000
0000000000003FE000
0000000000007FE000
0000000000007FC000
000000000000FFC000
000000000000FF8000
000000000001FF8000
000000000001FF8000
000000000003FF0000
000000000003FF0000
000000000007FF0000
00000000000FFE0000
00000000000FFE0000
00000000001FFC0000
00000000001FFC0000
00000000003FFC0000
00000000003FF80000
00000000007FF80000
00000000007FF80000
0000000000FFF00000
0000000000FFF00000
001FFFFFFFFFE00000
007FFFFFFFFFE00000
00FFFFFFFFFFE00000
03FFFFFFFFFFC00000
07FFFFFFFFFFC00000
0FFFFFFFFFFFC00000
3FFFFFFFFFFF800000
FFFFFFFFFFFF800000
ENDCHAR

STARTCHAR s
ENCODING 115
SWIDTH 1264 0
DWIDTH 91 0
BBX 79 57 2 0
BITMAP
00000000000000000002
00000000000000000004
00000000000000000004
0000000000000000000C
0000000000000000000C
0000000000000000000C
0000000000000000001C
0000000000000000001C
0000000000000000003C
0000000000000000003C
0000000000000000007C
0000000000000000007C
000000000000000000FC
000000000000000000FC
000000000000000001FC
000000000000000001FC
000000000000000003FC
000000000000000003FC
000000000000000007FC
00000000000000000FFC
00000000000000001FFC
00000000000000001FFC
00000000000000003FFC
00000000000000007FFC
0000000000000000FFFC
0000000000000000FFFC
0000000000000001FFFC
0000000000000003FFFC
0000000000000007FFFC
000000000000000FFFFC
000000000000001FFFFC
000000000000003FFFFC
000000000000007FFFFC
00000000000000FFFFFC
00000000000003FFFFFC
00000000000007FFFFFC
0000000000000FFFFFFC
0000000000001FFFFFFC
0000000000003FFFFFFC
000000000000FFFFFFFC
000000000001FFFFFFFC
000000000003FFFFFFFC
00000000000FFFFFFFFC
00000000001FFFFFFFFC
00000000007FFFFFFFFC
0000000001FFFFFFFFFC
0000000007FFFFFFFFFC
000000001FFFFFFFFFFC
000000007FFFFFFFFFFC
00000001FFFFFFFFFFFC
0000000FFFFFFFFFFFFC
0000007FFFFFFFFFFFFC
000007FFFFFFFFFFFFFC
00007FFFFFFFFFFFFFFC
000FFFFFFFFFFFFFFFFC
01FFFFFFFFFFFFFFFFFC
FFFFFFFFFFFFFFFFFFFC
ENDCHAR

STARTCHAR t
ENCODING 116
SWIDTH 884 0
DWIDTH 64 0
BBX 42 36 4 6
BITMAP
FFFFFFFFE000
800000003000
800000003800
800000003C00
800000003E00
800000003F00
800000003F80
800000003FC0
800000003FC0
800000003FC0
800000003FC0
800000003FC0
800000003FC0
800000003FC0
800000003FC0
800000003FC0
800000003FC0
800000003FC0
800000003FC0
800000003FC0
800000003FC0
800000003FC0
800000003FC0
800000003FC0
800000003FC0
800000003FC0
800000003FC0
800000003FC0
800000003FC0
FFFFFFFFFFC0
3FFFFFFFFFC0
1FFFFFFFFFC0
0FFFFFFFFFC0
03FFFFFFFFC0
01FFFFFFFFC0
00FFFFFFFFC0
ENDCHAR

STARTCHAR u
ENCODING 117
SWIDTH 844 0
DWIDTH 61 0
BBX 38 34 3 11
BITMAP
FFFFFFFFFC
FFFFFFFFFC
FFFFFFFFFC
FFFFFFFFFC
FFFFFFFFFC
FFFFFFFFFC
FFFFFFFFFC
FFFFFFFFFC
FFFFFFFFFC
FFFFFFFFFC
FFFFFFFFFC
FFFFFFFFFC
FFFFFFFFFC
FFFFFFFFFC
FFFFFFFFFC
FFFFFFFFFC
FFFFFFFFFC
FFFFFFFFFC
FFFFFFFFFC
FFFFFFFFFC
FFFFFFFFFC
FFFFFFFFFC
FFFFFFFFFC
FFFFFFFFFC
FFFFFFFFFC
FFFFFFFFFC
FFFFFFFFFC
FFFFFFFFFC
FFFFFFFFFC
FFFFFFFFFC
FFFFFFFFFC
FFFFFFFFFC
FFFFFFFFFC
FFFFFFFFFC
ENDCHAR

STARTCHAR v
ENCODING 118
SWIDTH 1176 0
DWIDTH 85 0
BBX 65 28 3 11
BITMAP
FFFFFFFFFFFFFFFF80
FFFFFFFFFFFFFFFF80
FFFFFFFFFFFFFFFF80
FFFFFFFFFFFFFFFF80
FFFFFFFFFFFFFFFF80
FFFFFFFFFFFFFFFF80
FFFFFFFFFFFFFFFF80
FFFFFFFFFFFFFFFF80
FFFFFFFFFFFFFFFF80
FFFFFFFFFFFFFFFF80
FFFFFFFFFFFFFFFF80
FFFFFFFFFFFFFFFF80
FFFFFFFFFFFFFFFF80
FFFFFFFFFFFFFFFF80
FFFFFFFFFFFFFFFF80
FFFFFFFFFFFFFFFF80
FFFFFFFFFFFFFFFF80
FFFFFFFFFFFFFFFF80
FFFFFFFFFFFFFFFF80
FFFFFFFFFFFFFFFF80
FFFFFFFFFFFFFFFF80
FFFFFFFFFFFFFFFF80
FFFFFFFFFFFFFFFF80
FFFFFFFFFFFFFFFF80
FFFFFFFFFFFFFFFF80
FFFFFFFFFFFFFFFF80
FFFFFFFFFFFFFFFF80
FFFFFFFFFFFFFFFF80
ENDCHAR

STARTCHAR w
ENCODING 119
SWIDTH 1252 0
DWIDTH 90 0
BBX 72 34 0 7
BITMAP
FFFFFFFFFC7FF1F8F3
FFFFFFFFFC7FF1F8F3
FFFFFFFFFC7FF1F8F3
FFFFFFFFFC7FF1F8F3
FFFFFFFFFC7FF1F8F3
FFFFFFFFFC7FF1F8F3
FFFFFFFFFC7FF1F8F3
FFFFFFFFFC7FF1F8F3
FFFFFFFFFC7FF1F8F3
FFFFFFFFFC7FF1F8F3
FFFFFFFFFC7FF1F8F3
FFFFFFFFFC7FF1F8F3
FFFFFFFFFC7FF1F8F3
FFFFFFFFFC7FF1F8F3
FFFFFFFFFC7FF1F8F3
FFFFFFFFFC7FF1F8F3
FFFFFFFFFC7FF1F8F3
FFFFFFFFFC7FF1F8F3
FFFFFFFFFC7FF1F8F3
FFFFFFFFFC7FF1F8F3
FFFFFFFFFC7FF1F8F3
FFFFFFFFFC7FF1F8F3
FFFFFFFFFC7FF1F8F3
FFFFFFFFFC7FF1F8F3
FFFFFFFFFC7FF1F8F3
FFFFFFFFFC7FF1F8F3
FFFFFFFFFC7FF1F8F3
FFFFFFFFFC7FF1F8F3
FFFFFFFFFC7FF1F8F3
FFFFFFFFFC7FF1F8F3
FFFFFFFFFC7FF1F8F3
FFFFFFFFFC7FF1F8F3
FFFFFFFFFC7FF1F8F3
FFFFFFFFFC7FF1F8F3
ENDCHAR

STARTCHAR x
ENCODING 120
SWIDTH 1244 0
DWIDTH 90 0
BBX 75 54 0 -3
BITMAP
00000000000000400000
00000000000000400000
00000000000000400000
00000000000000600000
00000000000000700000
00000000000000700000
00000000000000780000
000000000000007C0000
000000000000007C0000
000000000000007E0000
C78FC7FF1FFFFFFF0000
C78FC7FF1FFFFFFF0000
C78FC7FF1FFFFFFF8000
C78FC7FF1FFFFFFFC000
C78FC7FF1FFFFFFFC000
C78FC7FF1FFFFFFFE000
C78FC7FF1FFFFFFFF000
C78FC7FF1FFFFFFFF000
C78FC7FF1FFFFFFFF800
C78FC7FF1FFFFFFFFC00
C78FC7FF1FFFFFFFFC00
C78FC7FF1FFFFFFFFE00
C78FC7FF1FFFFFFFFF00
C78FC7FF1FFFFFFFFF00
C78FC7FF1FFFFFFFFF80
C78FC7FF1FFFFFFFFFC0
C78FC7FF1FFFFFFFFFE0
C78FC7FF1FFFFFFFFFE0
C78FC7FF1FFFFFFFFFC0
C78FC7FF1FFFFFFFFF80
C78FC7FF1FFFFFFFFF80
C78FC7FF1FFFFFFFFF00
C78FC7FF1FFFFFFFFE00
C78FC7FF1FFFFFFFFE00
C78FC7FF1FFFFFFFFC00
C78FC7FF1FFFFFFFF800
C78FC7FF1FFFFFFFF800
C78FC7FF1FFFFFFFF000
C78FC7FF1FFFFFFFE000
C78FC7FF1FFFFFFFE000
C78FC7FF1FFFFFFFC000
C78FC7FF1FFFFFFF8000
C78FC7FF1FFFFFFF0000
000000000000007F0000
000000000000007E0000
000000000000007C0000
000000000000007C0000
00000000000000780000
00000000000000700000
00000000000000700000
00000000000000600000
00000000000000400000
00000000000000400000
00000000000000400000
ENDCHAR

STARTCHAR y
ENCODING 121
SWIDTH 864 0
DWIDTH 62 0
BBX 46 32 0 9
BITMAP
FFFFFFFFFFE4
8000FFFFFFE4
8000FFFFFFE4
8000FFFFFFE4
8000FFFFFFE4
8000FFFFFFE4
8000FFFFFFE4
8000FFFFFFE4
8000FFFFFFE4
8000FFFFFFE4
8000FFFFFFE4
8000FFFFFFE4
8000FFFFFFE4
8000FFFFFFE4
8000FFFFFFE4
8000FFFFFFE4
8000FFFFFFE4
8000FFFFFFE4
8000FFFFFFE4
8000FFFFFFE4
8000FFFFFFE4
8000FFFFFFE4
8000FFFFFFE4
8000FFFFFFE4
8000FFFFFFE4
8000FFFFFFE4
8000FFFFFFE4
8000FFFFFFE4
8000FFFFFFE4
8000FFFFFFE4
8000FFFFFFE4
FFFFFFFFFFE4
ENDCHAR

STARTCHAR z
ENCODING 122
SWIDTH 704 0
DWIDTH 51 0
BBX 35 32 0 9
BITMAP
FFFFFFFFE0
8000000020
8000000020
8000000020
8000000020
8000000020
8000000020
8000000020
8000000020
8000000020
8000000020
8000000020
8000000020
8000000020
8000000020
8000000020
8000000020
8000000020
8000000020
8000000020
8000000020
8000000020
8000000020
8000000020
8000000020
8000000020
8000000020
8000000020
8000000020
8000000020
8000000020
FFFFFFFFE0
ENDCHAR
ENDFONT
